<svg version="1.2" xmlns="http://www.w3.org/2000/svg" viewBox="0 0 60 60" width="60" height="60"><style>.s0{fill:#111111}</style><path class="s0" d="m22.5 17.6c1.5-0.3 1.5-1.5 3-1.5c1.9 0.4 1.9 1.5 3.4 3.4c3 3.4 2.2 4.9 5.6 7.9c2.6 2.2 3.4 3.7 6 3.4c3.7-0.8 1.9-9.8 5.6-10.5c3.8-1.2 7.2 2.6 9 7.5c3.8 10.1-1.8 20.6-10.1 25.8c-7.5 4.9-10.9 1.9-19.9-1.9c-2.6-1.1-2.2-2.2-4.9-3.7c-7.5-4.9-13.1-1.9-15.3-8.6c-3.4-8.3 1.1-21 9-23.7c2.6-0.7 3.4 3 6.7 3c0.8 0 0.8-0.7 1.5-0.7c0.4 0 0.4 0 0.4-0.4zm19.5 6c-3 2.3-7.5-0.3-9.4-4.9c-1.1-2.9-1.1-5.6 0.4-8.2c4.1-7.5 13.9-9 18.7-3c1.9 1.9 2.3 5.3 1.2 7.9c-1.5 4.1-6.4-1.2-9.4 3m-16.1-14.7c3.7 0.4 6.4 6.8 5.6 10.5c-0.7 4.2-10.1 7.2-12 3.4c-1.5-2.2-0.8-6 1.1-9.3" /></svg>